<svg xmlns="http://www.w3.org/2000/svg" viewBox="0 0 64 64" width="64" height="64">
  <rect width="64" height="64" rx="14" fill="#0d3a22"/>
  <circle cx="32" cy="32" rx="1" r="18" fill="#f3f7f4"/>
  <g fill="#0a2a18">
    <polygon points="32,21 37,25 35,31 29,31 27,25"/>
    <polygon points="32,21 27,25 22,23 24,18 30,17"/>
    <polygon points="32,21 37,25 42,23 40,18 34,17"/>
    <polygon points="29,31 35,31 37,38 32,42 27,38"/>
    <polygon points="22,23 24,30 29,31 27,25"/>
    <polygon points="42,23 40,30 35,31 37,25"/>
  </g>
  <circle cx="32" cy="32" r="18" fill="none" stroke="#f5c542" stroke-width="2.5"/>
</svg>
